<svg width="212" height="104" viewBox="0 0 212 104" fill="none" xmlns="http://www.w3.org/2000/svg">
<path fill-rule="evenodd" clip-rule="evenodd" d="M107.942 0.9126C94.2693 0.912601 83.6206 4.63745 75.9956 12.0872C75.8401 12.2409 75.6862 12.3959 75.5339 12.5522C75.3798 12.3959 75.2241 12.2409 75.0668 12.0872C67.5294 4.63746 56.9245 0.912604 43.2521 0.912606C29.5797 0.912607 18.931 4.63746 11.306 12.0872C3.76867 19.5369 0 30.0979 0 43.7703L4.45931e-06 94.7789H26.0302L26.0302 44.5591C26.0302 29.835 31.8585 22.4729 43.5151 22.4729C55.084 22.4729 60.8685 29.835 60.8685 44.5591L60.8685 94.7789L64.6896 94.7789L86.5043 94.7789L90.7197 94.7789L90.7197 44.5591C90.7197 29.835 96.548 22.4729 108.205 22.4729C119.774 22.4729 125.558 29.835 125.558 44.5591V48.2405L125.364 60.1592C125.364 73.8316 129.176 84.3926 136.801 91.8424C144.338 99.2921 154.943 103.017 168.616 103.017C182.288 103.017 192.937 99.2921 200.562 91.8424C208.099 84.3926 211.868 73.8316 211.868 60.1592V9.15057H185.838V59.3704C185.838 74.0945 180.009 81.4566 168.353 81.4566C156.784 81.4566 151.182 74.0854 151.182 59.3613V49.8679H151.194V43.7703C151.194 30.0979 147.381 19.5369 139.756 12.0872C132.219 4.63745 121.614 0.912598 107.942 0.9126Z" fill="#19E4CC"/>
</svg>
