<svg width="722" height="90" viewBox="0 0 722 90" fill="none" xmlns="http://www.w3.org/2000/svg">
<path d="M0.0258967 88V2.07696H39.305C47.1608 2.07696 53.9119 3.34535 59.5583 5.88213C65.2865 8.41891 69.7054 12.1013 72.815 16.9294C75.9246 21.6756 77.4794 27.322 77.4794 33.8685C77.4794 40.3332 75.9246 45.9386 72.815 50.6849C69.7054 55.4311 65.2865 59.1135 59.5583 61.7321C53.9119 64.2689 47.1608 65.5373 39.305 65.5373H13.5281L24.3298 54.981V88H0.0258967ZM24.3298 57.5587L13.5281 46.3887H37.832C42.9056 46.3887 46.6698 45.284 49.1248 43.0745C51.6616 40.8651 52.9299 37.7964 52.9299 33.8685C52.9299 29.8587 51.6616 26.7492 49.1248 24.5397C46.6698 22.3303 42.9056 21.2255 37.832 21.2255H13.5281L24.3298 10.0555V57.5587ZM89.3293 88V2.07696H128.608C136.464 2.07696 143.215 3.34535 148.862 5.88213C154.59 8.41891 159.009 12.1013 162.118 16.9294C165.228 21.6756 166.783 27.322 166.783 33.8685C166.783 40.3332 165.228 45.9386 162.118 50.6849C159.009 55.3492 154.59 58.9498 148.862 61.4866C143.215 63.9416 136.464 65.169 128.608 65.169H102.831L113.633 54.981V88H89.3293ZM142.479 88L121.121 56.6995H147.02L168.501 88H142.479ZM113.633 57.5587L102.831 46.3887H127.135C132.209 46.3887 135.973 45.284 138.428 43.0745C140.965 40.8651 142.233 37.7964 142.233 33.8685C142.233 29.8587 140.965 26.7492 138.428 24.5397C135.973 22.3303 132.209 21.2255 127.135 21.2255H102.831L113.633 10.0555V57.5587ZM223.521 89.7185C216.647 89.7185 210.305 88.6137 204.495 86.4043C198.685 84.1948 193.611 81.0852 189.274 77.0755C185.019 72.9839 181.705 68.2377 179.332 62.8368C176.959 57.4359 175.772 51.5032 175.772 45.0385C175.772 38.5738 176.959 32.641 179.332 27.2401C181.705 21.8393 185.019 17.134 189.274 13.1242C193.611 9.03264 198.685 5.88213 204.495 3.67268C210.305 1.46323 216.647 0.358504 223.521 0.358504C230.476 0.358504 236.818 1.46323 242.547 3.67268C248.357 5.88213 253.389 9.03264 257.644 13.1242C261.9 17.134 265.214 21.8393 267.587 27.2401C270.042 32.641 271.269 38.5738 271.269 45.0385C271.269 51.5032 270.042 57.4769 267.587 62.9596C265.214 68.3604 261.9 73.0658 257.644 77.0755C253.389 81.0852 248.357 84.1948 242.547 86.4043C236.818 88.6137 230.476 89.7185 223.521 89.7185ZM223.521 69.5879C226.794 69.5879 229.822 69.0151 232.604 67.8695C235.468 66.7238 237.923 65.0872 239.969 62.9596C242.096 60.7501 243.733 58.1315 244.879 55.1038C246.106 52.076 246.72 48.7209 246.72 45.0385C246.72 41.2742 246.106 37.9191 244.879 34.9732C243.733 31.9455 242.096 29.3678 239.969 27.2401C237.923 25.0307 235.468 23.3531 232.604 22.2075C229.822 21.0619 226.794 20.489 223.521 20.489C220.247 20.489 217.179 21.0619 214.315 22.2075C211.532 23.3531 209.077 25.0307 206.95 27.2401C204.904 29.3678 203.267 31.9455 202.04 34.9732C200.894 37.9191 200.322 41.2742 200.322 45.0385C200.322 48.7209 200.894 52.076 202.04 55.1038C203.267 58.1315 204.904 60.7501 206.95 62.9596C209.077 65.0872 211.532 66.7238 214.315 67.8695C217.179 69.0151 220.247 69.5879 223.521 69.5879ZM301.089 88V21.3483H274.699V2.07696H351.661V21.3483H325.393V88H301.089ZM402.847 89.7185C395.973 89.7185 389.631 88.6137 383.821 86.4043C378.011 84.1948 372.937 81.0852 368.6 77.0755C364.345 72.9839 361.031 68.2377 358.658 62.8368C356.285 57.4359 355.098 51.5032 355.098 45.0385C355.098 38.5738 356.285 32.641 358.658 27.2401C361.031 21.8393 364.345 17.134 368.6 13.1242C372.937 9.03264 378.011 5.88213 383.821 3.67268C389.631 1.46323 395.973 0.358504 402.847 0.358504C409.802 0.358504 416.144 1.46323 421.872 3.67268C427.683 5.88213 432.715 9.03264 436.97 13.1242C441.226 17.134 444.54 21.8393 446.913 27.2401C449.368 32.641 450.595 38.5738 450.595 45.0385C450.595 51.5032 449.368 57.4769 446.913 62.9596C444.54 68.3604 441.226 73.0658 436.97 77.0755C432.715 81.0852 427.683 84.1948 421.872 86.4043C416.144 88.6137 409.802 89.7185 402.847 89.7185ZM402.847 69.5879C406.12 69.5879 409.148 69.0151 411.93 67.8695C414.794 66.7238 417.249 65.0872 419.295 62.9596C421.422 60.7501 423.059 58.1315 424.205 55.1038C425.432 52.076 426.046 48.7209 426.046 45.0385C426.046 41.2742 425.432 37.9191 424.205 34.9732C423.059 31.9455 421.422 29.3678 419.295 27.2401C417.249 25.0307 414.794 23.3531 411.93 22.2075C409.148 21.0619 406.12 20.489 402.847 20.489C399.573 20.489 396.505 21.0619 393.641 22.2075C390.858 23.3531 388.403 25.0307 386.276 27.2401C384.23 29.3678 382.593 31.9455 381.366 34.9732C380.22 37.9191 379.647 41.2742 379.647 45.0385C379.647 48.7209 380.22 52.076 381.366 55.1038C382.593 58.1315 384.23 60.7501 386.276 62.9596C388.403 65.0872 390.858 66.7238 393.641 67.8695C396.505 69.0151 399.573 69.5879 402.847 69.5879ZM506.163 89.7185C499.371 89.7185 493.07 88.6547 487.26 86.527C481.532 84.3176 476.54 81.208 472.285 77.1982C468.112 73.1885 464.838 68.4832 462.465 63.0823C460.092 57.5996 458.906 51.585 458.906 45.0385C458.906 38.492 460.092 32.5183 462.465 27.1174C464.838 21.6347 468.112 16.8885 472.285 12.8787C476.54 8.86898 481.532 5.8003 487.26 3.67268C493.07 1.46323 499.371 0.358504 506.163 0.358504C514.101 0.358504 521.179 1.74964 527.399 4.53191C533.7 7.31418 538.937 11.3239 543.11 16.5611L527.644 30.5543C524.862 27.2811 521.793 24.7852 518.438 23.0667C515.165 21.3483 511.482 20.489 507.391 20.489C503.872 20.489 500.64 21.0619 497.694 22.2075C494.748 23.3531 492.211 25.0307 490.083 27.2401C488.038 29.3678 486.401 31.9455 485.174 34.9732C484.028 38.001 483.455 41.3561 483.455 45.0385C483.455 48.7209 484.028 52.076 485.174 55.1038C486.401 58.1315 488.038 60.7501 490.083 62.9596C492.211 65.0872 494.748 66.7238 497.694 67.8695C500.64 69.0151 503.872 69.5879 507.391 69.5879C511.482 69.5879 515.165 68.7287 518.438 67.0102C521.793 65.2918 524.862 62.7959 527.644 59.5227L543.11 73.5158C538.937 78.6712 533.7 82.681 527.399 85.5451C521.179 88.3273 514.101 89.7185 506.163 89.7185ZM595.478 89.7185C588.604 89.7185 582.262 88.6137 576.452 86.4043C570.642 84.1948 565.569 81.0852 561.232 77.0755C556.977 72.9839 553.662 68.2377 551.289 62.8368C548.916 57.4359 547.73 51.5032 547.73 45.0385C547.73 38.5738 548.916 32.641 551.289 27.2401C553.662 21.8393 556.977 17.134 561.232 13.1242C565.569 9.03264 570.642 5.88213 576.452 3.67268C582.262 1.46323 588.604 0.358504 595.478 0.358504C602.434 0.358504 608.776 1.46323 614.504 3.67268C620.314 5.88213 625.347 9.03264 629.602 13.1242C633.857 17.134 637.171 21.8393 639.545 27.2401C641.999 32.641 643.227 38.5738 643.227 45.0385C643.227 51.5032 641.999 57.4769 639.545 62.9596C637.171 68.3604 633.857 73.0658 629.602 77.0755C625.347 81.0852 620.314 84.1948 614.504 86.4043C608.776 88.6137 602.434 89.7185 595.478 89.7185ZM595.478 69.5879C598.752 69.5879 601.779 69.0151 604.562 67.8695C607.426 66.7238 609.881 65.0872 611.926 62.9596C614.054 60.7501 615.691 58.1315 616.836 55.1038C618.064 52.076 618.677 48.7209 618.677 45.0385C618.677 41.2742 618.064 37.9191 616.836 34.9732C615.691 31.9455 614.054 29.3678 611.926 27.2401C609.881 25.0307 607.426 23.3531 604.562 22.2075C601.779 21.0619 598.752 20.489 595.478 20.489C592.205 20.489 589.136 21.0619 586.272 22.2075C583.49 23.3531 581.035 25.0307 578.907 27.2401C576.862 29.3678 575.225 31.9455 573.998 34.9732C572.852 37.9191 572.279 41.2742 572.279 45.0385C572.279 48.7209 572.852 52.076 573.998 55.1038C575.225 58.1315 576.862 60.7501 578.907 62.9596C581.035 65.0872 583.49 66.7238 586.272 67.8695C589.136 69.0151 592.205 69.5879 595.478 69.5879ZM655.956 88V2.07696H680.26V68.7287H721.258V88H655.956Z" fill="#333333"/>
</svg>
